<svg width="130" height="32" viewBox="0 0 130 32" fill="none" xmlns="http://www.w3.org/2000/svg">
<path fill-rule="evenodd" clip-rule="evenodd" d="M113.024 0.000183105C122.179 0.000183105 129.024 6.85215 129.024 16.0027C129.024 25.1634 122.179 32.0002 113.024 32.0002C103.864 32.0002 97.0217 25.1634 97.0217 16.0027C97.0217 6.85215 103.864 0.000183105 113.024 0.000183105ZM113.024 29.4411C120.712 29.4411 126.305 23.7836 126.305 16.0027C126.305 8.2539 120.712 2.56177 113.024 2.56177C105.336 2.56177 99.7417 8.21934 99.7417 16.0027C99.7417 23.7836 105.336 29.4411 113.024 29.4411ZM108.68 9.34714V24.978H104.087V11.2251C104.087 9.84446 104.615 9.34714 105.961 9.34714H108.68ZM121.963 24.978H117.372V9.34714H120.085C121.43 9.34714 121.963 9.84446 121.963 11.2251V24.978ZM115.334 7.31912V24.978H110.708V8.7588C110.708 7.62256 110.525 7.41015 109.581 7.41015H109.334V5.4386H113.467C114.834 5.4386 115.334 5.91147 115.334 7.31912ZM42.5528 11.3466V25.3767H37.6741V12.7197C37.6741 11.9063 37.331 11.5329 36.5185 11.5329H36.2395V9.75519H40.9867C41.9561 9.75519 42.5528 10.3469 42.5528 11.3466ZM39.8328 4.19287C41.6105 4.19287 42.6439 5.0383 42.6439 6.43584C42.6439 7.85023 41.6105 8.68723 39.8328 8.68723C38.0846 8.68723 37.0166 7.85023 37.0166 6.43584C37.0166 5.0383 38.0846 4.19287 39.8328 4.19287ZM6.57079 20.3471L5.06874 25.3767H-0.000488281L5.46996 8.97045C5.79195 8.03567 5.88382 7.69345 5.88382 7.28549C5.88382 6.66258 5.44383 6.34565 4.63127 6.34565H3.97717V4.53425H11.758C12.9482 4.53425 13.6352 5.05853 13.9487 6.19055L19.4141 25.3767H13.9133L12.5074 20.3471H6.57079ZM7.35216 16.9367H11.758L9.69712 9.28401L7.35216 16.9367ZM25.7487 6.13071V25.3767H20.8455V7.5097C20.8455 6.69039 20.5025 6.34565 19.6916 6.34565H19.378V4.53425H24.1885C25.1604 4.53425 25.7487 5.12849 25.7487 6.13071ZM34.0892 25.3767V6.13071C34.0892 5.12849 33.4933 4.53425 32.5265 4.53425H27.7169V6.34565H28.0237C28.8396 6.34565 29.1827 6.69039 29.1827 7.5097V25.3767H34.0892ZM46.695 14.2264C48.3226 13.445 50.1045 13.0067 51.5079 13.0067C52.8245 13.0067 53.294 13.4753 53.294 14.8417V15.1907C51.2947 15.5067 50.6701 15.634 49.5423 15.8827C48.8924 16.0361 48.2897 16.2215 47.6963 16.4736C45.7256 17.2642 44.795 18.7856 44.795 21.1281C44.795 24.0959 46.0746 25.5306 48.7289 25.5306C49.6974 25.5306 50.574 25.3451 51.357 25.0358C52.0423 24.7315 52.4486 24.4761 53.4517 23.6939V23.9113C53.4517 24.8798 53.9481 25.3772 54.92 25.3772H59.3874V23.6939H59.1666C58.3245 23.6939 58.0135 23.3154 58.0135 22.3199V14.8788C58.0135 10.9121 56.637 9.5314 52.6652 9.5314C51.3857 9.5314 50.1374 9.69493 48.9219 9.97477C47.6963 10.2521 47.0692 10.5033 45.6093 11.224L46.695 14.2264ZM53.294 17.8736V20.9106C52.4781 21.7544 51.4826 22.2601 50.6406 22.2601C49.7606 22.2601 49.4521 21.8285 49.4521 20.6577C49.4521 19.5013 49.6974 18.9753 50.574 18.6339C51.2289 18.3507 52.0735 18.102 53.294 17.8736ZM66.5028 14.8143V25.3767H61.6299V12.7197C61.6299 11.9063 61.2827 11.5329 60.4701 11.5329H60.1886V9.75519H64.8178C65.8158 9.75519 66.3241 10.2525 66.3241 11.2244V11.8481C68.1279 10.1606 69.4706 9.56975 71.3773 9.56975C72.6636 9.56975 73.6632 9.93979 74.3199 10.663C75.1038 11.5017 75.2841 12.2831 75.2841 14.7553V25.3767H70.4105V15.4785C70.4105 13.9073 70.1635 13.4985 69.1284 13.4985C68.1591 13.4985 67.3187 13.9073 66.5028 14.8143ZM89.7485 22.0965H82.9361L89.4374 12.978V9.753H79.2526C78.0962 9.753 77.5651 10.2832 77.5651 11.443V14.2819H79.3757V14.0029C79.3757 13.2856 79.7508 12.9417 80.5279 12.9417H84.0319L77.469 22.1614V25.3771H89.7485V22.0965Z" fill="#003781"/>
</svg>
